# xmcd
#
# Track frame offsets:
#	219
#	17718
#	34716
#	50835
#	74654
#	90584
#	108799
#	124139
#	143729
#	156181
#	172344
#
# Disc length: 2537 seconds
#
# Revision: 0
# Processed by: cddbd v1.4PL0 Copyright (c) Steve Scherf et al.
# Submitted via: dBpowerAMP V4.0
#
DISCID=9a09e70b
DTITLE=Matt Passalacqua - Fool Enough
DYEAR=2003
DGENRE=Country
TTITLE0=Holding On
TTITLE1=A Million Miles
TTITLE2=Her Mama Don't Love Me
TTITLE3=Fool Enough
TTITLE4=Just A Little Further
TTITLE5=Sweet Marie
TTITLE6=Walking Over You
TTITLE7=The Damned
TTITLE8=These Old Boots Of Mine
TTITLE9=On My Way
TTITLE10=Wilder Than Her
EXTD=Matt is an up and coming artist from central Illinois.  The Passalacqua Family (Father Larry Sr. - brothers Larry, Mike, Bill, and Matt - grandchildren Chloe and Caitlin) are a significant gene pool of talent.  Bill's "Recless Pedestrian" cd availabl
EXTD=e
EXTT0=
EXTT1=
EXTT2=
EXTT3=
EXTT4=
EXTT5=
EXTT6=
EXTT7=
EXTT8=
EXTT9=
EXTT10=
PLAYORDER=
